<?xml version="1.0" encoding="UTF-8"?>
<svg version="1.1" xmlns="http://www.w3.org/2000/svg" width="1024" height="842">
<path d="M0 0 C337.92 0 675.84 0 1024 0 C1024 277.86 1024 555.72 1024 842 C686.08 842 348.16 842 0 842 C0 564.14 0 286.28 0 0 Z " fill="#851535" transform="translate(0,0)"/>
<path d="M0 0 C0.73075745 0.00126892 1.46151489 0.00253784 2.2144165 0.00384521 C54.70353942 0.17696332 102.38884952 15.97247099 146.14624023 44.78979492 C150.54668947 47.54941502 153.25807784 48.43201131 158.5390625 48.4609375 C160.34697266 48.491875 160.34697266 48.491875 162.19140625 48.5234375 C164.70696499 48.5492381 167.22261218 48.56761019 169.73828125 48.578125 C186.20792347 48.89316598 195.79913087 56.09356281 207.0390625 67.58984375 C210.23867307 71.14793912 213.16108254 74.89105934 216.07788086 78.68212891 C219.38294345 82.96949935 222.82232629 87.10361753 226.375 91.1875 C231.3808804 96.95579582 236.14572972 102.8760372 240.81640625 108.91796875 C243.75888245 112.71575136 246.86933853 116.37033233 250.01171875 120.00390625 C251.65962947 122.64339649 251.80763888 124.12848864 251.375 127.1875 C249.375 129.1875 249.375 129.1875 247.1328125 129.640625 C243.1651074 128.98870745 241.01889343 126.65690435 238.25 123.9375 C237.67362793 123.38811768 237.09725586 122.83873535 236.50341797 122.27270508 C233.0325212 118.92491353 229.72917765 115.45769874 226.5 111.875 C221.19093076 106.00749533 215.7626394 100.25916342 210.23651123 94.59609985 C209.21097763 93.5393909 208.1918445 92.47642915 207.17950439 91.40707397 C201.04677518 84.43264937 201.04677518 84.43264937 192.79296875 80.94140625 C189.49132657 80.93495934 189.49132657 80.93495934 187.375 82.3125 C186.01235501 84.86745936 186.01385573 86.306648 186.375 89.1875 C188.19474188 91.84418153 188.19474188 91.84418153 190.8125 94.4375 C191.52937988 95.19208496 191.52937988 95.19208496 192.26074219 95.96191406 C197.49316212 101.42310938 202.87862134 106.74540613 208.27124023 112.04785156 C212.30175844 116.02700457 216.11731759 120.10944381 219.81201172 124.40185547 C221.79514237 126.66749395 223.90318559 128.77771257 226.0625 130.875 C234.17248248 138.9434638 234.17248248 138.9434638 234.8125 142.875 C234.668125 143.638125 234.52375 144.40125 234.375 145.1875 C231.375 147.1875 231.375 147.1875 228.5859375 147.1640625 C224.33896423 145.87240396 222.09654676 143.64793475 219 140.5625 C217.84705573 139.45499835 216.69341346 138.34822287 215.5390625 137.2421875 C214.99024414 136.70948242 214.44142578 136.17677734 213.87597656 135.62792969 C212.0939806 133.91781645 210.25174635 132.29271709 208.375 130.6875 C204.80146559 127.59851263 201.33819701 124.39876563 197.875 121.1875 C193.10765882 116.77397431 188.33225414 112.38838959 183.375 108.1875 C182.26705078 107.19169922 182.26705078 107.19169922 181.13671875 106.17578125 C176.43077754 102.04224232 176.43077754 102.04224232 170.375 101.1875 C167.5240712 101.8893576 167.5240712 101.8893576 166.375 103.1875 C165.99879347 107.10004786 165.81488429 109.3754601 168.0859375 112.66796875 C170.35437895 115.16480277 172.65551901 117.17635619 175.3125 119.25 C179.67100729 122.73796655 183.80528645 126.36798862 187.875 130.1875 C191.7914061 133.85617815 195.752678 137.38407842 199.9375 140.75 C204.05292188 144.08732144 208.13409046 147.45240619 212.125 150.9375 C212.93239624 151.60954468 212.93239624 151.60954468 213.75610352 152.29516602 C215.234375 153.609375 215.234375 153.609375 217.375 156.1875 C217.31498943 159.64810967 216.82695044 160.73554956 214.375 163.1875 C210.91907199 163.78459751 209.4984603 163.26071675 206.45703125 161.45703125 C205.35846639 160.64975638 204.26917478 159.82976933 203.1875 159 C201.93768765 158.07396544 200.68767799 157.14819713 199.4375 156.22265625 C198.7775 155.72781738 198.1175 155.23297852 197.4375 154.72314453 C194.62527566 152.62928905 191.77647188 150.58824005 188.92724609 148.54516602 C185.86358234 146.34610063 182.81094067 144.13199675 179.75878906 141.91699219 C178.14975786 140.74960413 176.53970646 139.58362112 174.92871094 138.41894531 C164.72501981 131.03368569 154.87930165 123.45503255 145.375 115.1875 C144.85156006 114.77701416 144.32812012 114.36652832 143.78881836 113.94360352 C140.47732541 111.3332724 138.36276554 109.0612645 136.5625 105.25 C136.16417969 104.43660156 135.76585937 103.62320313 135.35546875 102.78515625 C133.57753162 98.07468537 133.2840942 93.4294718 133.0847168 88.42724609 C132.69634742 79.0190819 131.64154747 70.60841147 125.375 63.1875 C104.50852802 46.19809693 75.04962375 43.90761518 49.34472656 46.4921875 C13.25461356 51.5286148 -20.09200136 74.58405381 -42.09326172 103.08984375 C-45.47034743 107.66161522 -48.5829835 112.38815236 -51.625 117.1875 C-52.05409668 117.85620117 -52.48319336 118.52490234 -52.92529297 119.21386719 C-60.19098235 130.64199051 -65.60794436 142.62979055 -70.625 155.1875 C-71.05683594 156.24839844 -71.48867188 157.30929687 -71.93359375 158.40234375 C-89.77861774 204.57721127 -86.53465863 256.75975108 -68.625 302.1875 C-68.32899902 302.94047363 -68.03299805 303.69344727 -67.72802734 304.46923828 C-57.93635195 328.88230254 -42.83678702 350.33576732 -24.625 369.1875 C-23.75488281 370.10917969 -22.88476562 371.03085937 -21.98828125 371.98046875 C10.98019207 406.10404187 63.03571469 432.22880906 110.91308594 433.34863281 C112.56178821 433.36853893 114.21057384 433.3822486 115.859375 433.390625 C116.75505188 433.39632507 117.65072876 433.40202515 118.57354736 433.40789795 C120.46617471 433.41730134 122.35881809 433.42386327 124.25146484 433.42773438 C127.07550767 433.4373318 129.89878704 433.46835447 132.72265625 433.5 C145.205937 433.57280394 157.10232945 432.44103346 169.375 430.1875 C170.4386377 429.99929688 171.50227539 429.81109375 172.59814453 429.6171875 C210.07713259 422.58171843 245.69134508 405.21547718 274.375 380.1875 C275.34050781 379.35089844 276.30601562 378.51429688 277.30078125 377.65234375 C279.69600236 375.53335452 282.04743175 373.38038076 284.375 371.1875 C285.05691406 370.54683594 285.73882813 369.90617187 286.44140625 369.24609375 C294.46856682 361.47027285 301.11907569 352.55343241 307.875 343.6875 C309.5426047 341.50838503 311.21079435 339.32971997 312.87939453 337.15136719 C314.17012327 335.45652194 315.44410082 333.74894364 316.71484375 332.0390625 C329.76499003 315.07630253 349.23389059 304.28858673 370.375 301.1875 C374.43605699 300.97692667 378.49646143 301.00239884 382.5625 301 C383.63564453 300.98775391 384.70878906 300.97550781 385.81445312 300.96289062 C408.14547728 300.92236245 427.74549461 309.96619943 443.72265625 325.46484375 C459.52599711 342.18982027 467.06941799 362.93235359 466.625 385.84765625 C465.48394104 401.09149074 460.94287699 416.49888218 452.375 429.1875 C451.53195312 430.51394531 451.53195312 430.51394531 450.671875 431.8671875 C442.91798842 443.88896963 434.20408157 455.42452932 424.453125 465.89453125 C422.30445706 468.26533592 420.34766782 470.73146036 418.375 473.25 C414.16055305 478.46045381 409.54930694 483.20018131 404.8125 487.9375 C404.10416016 488.64656494 403.39582031 489.35562988 402.66601562 490.08618164 C398.05830756 494.64638206 393.29313732 498.96599562 388.375 503.1875 C386.91126953 504.47333984 386.91126953 504.47333984 385.41796875 505.78515625 C346.75609256 539.15813008 301.46761613 562.6485693 253.375 579.1875 C252.54291016 579.47753906 251.71082031 579.76757812 250.85351562 580.06640625 C232.85334135 586.29203043 214.15782343 590.0763657 195.4375 593.4375 C194.2004834 593.66397217 194.2004834 593.66397217 192.93847656 593.89501953 C174.00307121 597.13868592 155.04827041 597.62285897 135.875 597.625 C134.58372192 597.62739685 133.29244385 597.6297937 131.96203613 597.63226318 C108.55305395 597.63262532 84.99225293 596.7990629 62.375 590.1875 C60.75531652 589.86762521 59.13006553 589.57437938 57.5 589.3125 C43.71522517 586.89188563 30.37872736 583.19608663 17.125 578.75 C16.35485565 578.49316437 15.5847113 578.23632874 14.79122925 577.97171021 C-20.11890368 566.25911705 -53.39212243 549.20456247 -83.625 528.1875 C-85.22794922 527.08921875 -85.22794922 527.08921875 -86.86328125 525.96875 C-100.23474109 516.69672341 -112.64719771 506.18454148 -124.625 495.1875 C-125.79675781 494.15302734 -125.79675781 494.15302734 -126.9921875 493.09765625 C-131.91374756 488.75001614 -136.65921042 484.25621705 -141.3125 479.625 C-142.09620972 478.84817871 -142.09620972 478.84817871 -142.89575195 478.05566406 C-178.32872702 442.4834741 -205.3218926 397.42718376 -221.8359375 350.203125 C-223.03360721 346.77869403 -224.32733706 343.41532391 -225.703125 340.05859375 C-227.4386875 335.76200808 -228.8415993 331.48456276 -230 327 C-230.20351074 326.21447754 -230.40702148 325.42895508 -230.61669922 324.61962891 C-241.03898545 282.9853794 -245.39745009 241.61153564 -237.625 199.1875 C-237.48610352 198.3742627 -237.34720703 197.56102539 -237.20410156 196.72314453 C-231.81221429 165.54486509 -218.47123555 134.17156052 -200.625 108.1875 C-200.22748535 107.59759277 -199.8299707 107.00768555 -199.42041016 106.39990234 C-186.12035098 86.73080075 -169.54987792 68.56010018 -150.625 54.1875 C-149.72136719 53.47851562 -148.81773437 52.76953125 -147.88671875 52.0390625 C-139.47679723 45.55238419 -130.61410878 39.83077546 -121.625 34.1875 C-120.64144531 33.55972656 -119.65789062 32.93195313 -118.64453125 32.28515625 C-102.84607603 22.59634893 -85.23834593 15.76963206 -67.625 10.1875 C-66.8942627 9.95192383 -66.16352539 9.71634766 -65.41064453 9.47363281 C-52.0885059 5.2450527 -38.44885755 3.08883564 -24.625 1.1875 C-23.90022461 1.08074951 -23.17544922 0.97399902 -22.42871094 0.86401367 C-14.99002144 -0.11969432 -7.48973267 -0.01333785 0 0 Z " fill="#FDFDFD" transform="translate(390.625,200.8125)"/>
<path d="M0 0 C1.53013733 0.00173721 1.53013733 0.00173721 3.09118652 0.00350952 C20.99033395 0.04346765 38.55938447 0.99123009 56.3125 3.3125 C57.73997559 3.4966748 57.73997559 3.4966748 59.19628906 3.68457031 C69.78255173 5.09788894 80.20704658 7.21080234 90.59521484 9.67773438 C92.74290069 10.17943996 94.89533987 10.66079509 97.04931641 11.13476562 C107.42035021 13.44562634 117.40888863 16.43981759 127.4375 19.9375 C128.19197418 20.19817261 128.94644836 20.45884521 129.7237854 20.72741699 C147.8586232 27.00733055 165.37931248 34.45471714 182.40429688 43.32373047 C184.36065564 44.33745271 186.3278285 45.32758586 188.296875 46.31640625 C206.19092474 55.41237089 222.89137833 66.42792551 238.57763672 78.93164062 C240.09489163 80.13929525 241.62639161 81.32900873 243.16015625 82.515625 C248.88222649 86.9772075 254.20975073 91.80216459 259.51953125 96.73828125 C261.68586938 98.73494814 263.87460846 100.66357959 266.125 102.5625 C270.21670267 106.11265379 274.03855006 109.92898002 277.875 113.75 C278.50059814 114.37100586 279.12619629 114.99201172 279.77075195 115.63183594 C284.15269341 120.02817084 288.28226064 124.59293024 292.3125 129.3125 C292.87348389 129.96677979 293.43446777 130.62105957 294.01245117 131.29516602 C304.62062598 143.75262645 315.66208405 156.7258809 321.3125 172.3125 C321.56999023 173.00988281 321.82748047 173.70726562 322.09277344 174.42578125 C324.40074258 181.24316703 324.76628124 187.52716043 324.6875 194.6875 C324.69910156 195.73421875 324.71070313 196.7809375 324.72265625 197.859375 C324.68438433 208.19279422 322.41906643 217.80865654 318.25 227.25 C317.95544922 227.91894287 317.66089844 228.58788574 317.35742188 229.27709961 C314.03018376 236.44954313 309.46315201 242.36231867 304.3125 248.3125 C303.75046875 248.98667969 303.1884375 249.66085937 302.609375 250.35546875 C290.33675855 263.89873488 270.14987629 271.74781787 252.3125 273.3125 C228.1674393 274.38264119 205.00231655 267.42877252 186.65234375 251.50390625 C180.17885656 245.44109103 175.12648809 238.41941134 169.86669922 231.31616211 C166.24700952 226.46173966 162.439946 221.89052045 158.3046875 217.4609375 C156.4938018 215.50802155 154.81344792 213.49555841 153.125 211.4375 C135.45256687 191.29820549 110.67930759 177.52998168 86.3125 167.3125 C85.5400293 166.97814941 84.76755859 166.64379883 83.97167969 166.29931641 C77.47491243 163.56828239 70.91970448 161.77896713 64.0625 160.1875 C62.4077063 159.79848511 62.4077063 159.79848511 60.71948242 159.40161133 C51.78401331 157.34119882 42.91572454 155.44634467 33.71484375 155.2265625 C26.27592094 155.01970475 22.12374926 154.18423872 16.3125 149.5390625 C-2.46106605 135.60555645 -25.82476992 127.79790708 -47.6875 120.3125 C-48.45674805 120.04663086 -49.22599609 119.78076172 -50.01855469 119.50683594 C-63.84118064 114.812236 -78.29408455 112.53072387 -92.6875 110.3125 C-94.46858154 110.02886597 -94.46858154 110.02886597 -96.28564453 109.73950195 C-108.31128233 108.01214362 -120.30306591 107.87141424 -132.4375 107.875 C-133.52154114 107.87426483 -134.60558228 107.87352966 -135.72247314 107.87277222 C-152.93213734 107.90338423 -168.93620518 109.13188877 -185.6875 113.3125 C-187.93066548 113.82693613 -190.17416336 114.33992467 -192.41796875 114.8515625 C-229.42493541 123.59376114 -264.92364793 139.41257102 -294.6875 163.3125 C-296.04488281 164.38371094 -296.04488281 164.38371094 -297.4296875 165.4765625 C-303.42467034 170.28273855 -309.11691611 175.36301755 -314.7421875 180.58984375 C-318.37954917 183.96842556 -322.10117221 187.25151233 -325.82421875 190.53515625 C-327.76523729 192.18586851 -327.76523729 192.18586851 -328.6875 194.3125 C-329.3475 193.9825 -330.0075 193.6525 -330.6875 193.3125 C-301.89527052 149.55789409 -301.89527052 149.55789409 -284.6875 130.3125 C-283.73617187 129.23198364 -283.73617187 129.23198364 -282.765625 128.12963867 C-277.02774533 121.66349963 -271.04278941 115.48156298 -264.93164062 109.37133789 C-263.3160932 107.75359808 -261.70874966 106.12799364 -260.1015625 104.50195312 C-253.62116219 97.98620777 -246.91796761 92.00275383 -239.6875 86.3125 C-238.32068326 85.19905895 -236.95472435 84.08456357 -235.58984375 82.96875 C-202.05072749 56.07183424 -164.02821241 35.87659406 -123.6875 21.3125 C-122.84606445 21.00586426 -122.00462891 20.69922852 -121.13769531 20.38330078 C-110.79025275 16.64660479 -100.34210431 13.89498465 -89.6171875 11.46484375 C-85.5687352 10.54152601 -81.60660471 9.43160786 -77.625 8.25 C-65.90857107 5.06632789 -53.71573827 3.78970542 -41.6875 2.3125 C-40.98998627 2.22316193 -40.29247253 2.13382385 -39.57382202 2.04177856 C-26.36536973 0.37074305 -13.30576661 -0.04706141 0 0 Z " fill="#FDFDFD" transform="translate(524.6875,69.6875)"/>
<path d="M0 0 C6.26911884 5.66631895 9.3487316 14.00777239 10.1640625 22.3125 C10.72670005 40.46838087 4.76896125 59.50076962 -7.546875 73.02734375 C-17.00901196 82.93654865 -28.4116016 90.85161668 -42.48461914 91.66455078 C-44.0729109 91.68509114 -45.66133531 91.69710863 -47.24975586 91.70068359 C-56.02607375 91.52626197 -56.02607375 91.52626197 -63.546875 95.40234375 C-64.75903928 96.75565045 -65.94410979 98.13345056 -67.109375 99.52734375 C-68.94249984 101.33019175 -70.78341096 103.09742011 -72.671875 104.83984375 C-73.17734863 105.30865967 -73.68282227 105.77747559 -74.20361328 106.26049805 C-98.55861185 128.35035361 -131.73326281 139.68376198 -164.2644043 139.76757812 C-166.50934365 139.77718317 -168.75332572 139.80820359 -170.99804688 139.83984375 C-180.75769555 139.91155937 -189.61963677 138.86381316 -199.109375 136.52734375 C-200.27907837 136.24503906 -200.27907837 136.24503906 -201.47241211 135.95703125 C-222.41692625 130.54175983 -241.74456063 119.51182148 -258.109375 105.52734375 C-258.94082031 104.82996094 -259.77226562 104.13257813 -260.62890625 103.4140625 C-266.89302594 97.99670553 -272.0512356 92.0686325 -277.109375 85.52734375 C-277.5434668 84.96869629 -277.97755859 84.41004883 -278.42480469 83.83447266 C-281.34034677 80.08099919 -284.23367839 76.31142827 -287.109375 72.52734375 C-287.69976562 71.78355469 -288.29015625 71.03976562 -288.8984375 70.2734375 C-290.109375 68.52734375 -290.109375 68.52734375 -290.109375 66.52734375 C-292.58122277 66.91045391 -293.80338041 67.18147451 -295.48828125 69.0859375 C-296.07416016 70.01599609 -296.07416016 70.01599609 -296.671875 70.96484375 C-298.41080799 73.69582375 -299.28833519 74.64665055 -302.109375 76.52734375 C-304.734375 76.27734375 -304.734375 76.27734375 -307.109375 75.52734375 C-309.74751819 70.25105737 -308.7408972 62.20860657 -307.42578125 56.625 C-303.76270143 46.76052364 -298.38665713 42.20392485 -289.01171875 37.69140625 C-283.61747188 35.52789943 -278.50074627 35.31766802 -272.734375 35.27734375 C-272.00476563 35.25671875 -271.27515625 35.23609375 -270.5234375 35.21484375 C-265.32807392 35.17773401 -261.69076418 36.02032225 -257.109375 38.52734375 C-256.171875 41.21484375 -256.171875 41.21484375 -256.109375 43.52734375 C-259.43526496 46.40045166 -262.66400192 47.49818556 -266.859375 48.71484375 C-268.02984375 49.05902344 -269.2003125 49.40320313 -270.40625 49.7578125 C-271.74429688 50.13873047 -271.74429688 50.13873047 -273.109375 50.52734375 C-271.52261954 63.94620166 -259.5154605 75.0222725 -249.609375 83.27734375 C-229.28247848 99.28299793 -208.45164293 109.41778534 -183.109375 114.52734375 C-181.624375 114.82898438 -181.624375 114.82898438 -180.109375 115.13671875 C-156.7184372 118.18241378 -133.91566021 113.17680762 -113.109375 102.52734375 C-111.94148437 101.96015625 -110.77359375 101.39296875 -109.5703125 100.80859375 C-99.03483397 95.47799363 -86.46338995 87.79668482 -80.109375 77.52734375 C-79.39924233 73.81887316 -80.24800477 70.93845715 -81.109375 67.33984375 C-83.83899118 55.59660291 -81.8840361 44.11440595 -76.109375 33.58984375 C-64.60649265 15.12723427 -47.73605158 -0.11322131 -26.171875 -5.16015625 C-16.63225258 -6.13358711 -8.14439279 -5.68599274 0 0 Z " fill="#FCFBFB" transform="translate(683.109375,420.47265625)"/>
<path d="M0 0 C0.89684329 2.47483338 1.07680043 3.74046753 0.3203125 6.296875 C-2.61911465 12.32942484 -5.91504225 16.173418 -11.20703125 20.30859375 C-11.79871094 20.86675781 -12.39039063 21.42492187 -13 22 C-13 22.99 -13 23.98 -13 25 C-14.57421875 26.68359375 -14.57421875 26.68359375 -16.6875 28.4375 C-17.79738281 29.35982422 -17.79738281 29.35982422 -18.9296875 30.30078125 C-19.61289062 30.86152344 -20.29609375 31.42226563 -21 32 C-22.1446875 33.051875 -22.1446875 33.051875 -23.3125 34.125 C-26.73756302 36.51457885 -30.33516908 38.10336861 -34.16015625 39.76171875 C-35.93625593 40.53616662 -37.69777301 41.34608645 -39.43359375 42.20703125 C-43.21471718 44.06155106 -46.06143877 45.21936573 -50.3125 45.0625 C-54.3869119 44.99344217 -55.01269008 45.54613828 -58 48 C-60.25 47.6875 -60.25 47.6875 -62 47 C-61.67 46.34 -61.34 45.68 -61 45 C-67.6 45 -74.2 45 -81 45 C-81 44.67 -81 44.34 -81 44 C-79.42025391 43.94392578 -79.42025391 43.94392578 -77.80859375 43.88671875 C-53.22880945 42.839244 -29.79948167 36.81156887 -12.36962891 18.54882812 C-7.47520611 13.01402987 -3.12807337 6.69149716 0 0 Z " fill="#6E1732" transform="translate(841,299)"/>
<path d="M0 0 C2.42480981 1.60713724 4.39777699 3.56048922 6.4375 5.625 C7.58003986 6.73118116 8.72326569 7.83665425 9.8671875 8.94140625 C10.40956055 9.4739502 10.95193359 10.00649414 11.51074219 10.55517578 C13.30381917 12.2947544 15.16450469 13.9384831 17.0625 15.5625 C19.79421343 17.92352163 22.46568387 20.34036547 25.11621094 22.79223633 C30.10719545 27.4076856 35.16269333 31.9371068 40.3125 36.375 C40.87469238 36.86250732 41.43688477 37.35001465 42.01611328 37.85229492 C45.85957743 41.14338124 49.84875475 44.10622955 54 47 C52.515 47.495 52.515 47.495 51 48 C49.3515625 47.109375 49.3515625 47.109375 47.625 45.75 C44.8394375 43.6285062 42.02861762 41.76669361 39 40 C38.01 39.34 37.02 38.68 36 38 C36 37.34 36 36.68 36 36 C35.34 36 34.68 36 34 36 C34 35.34 34 34.68 34 34 C33.34 34 32.68 34 32 34 C31.67 33.01 31.34 32.02 31 31 C24.22494698 23.56929669 15.60915513 14.29456747 6 11 C6 10.34 6 9.68 6 9 C4.68 8.34 3.36 7.68 2 7 C2 6.34 2 5.68 2 5 C0.2857711 3.76603959 0.2857711 3.76603959 -2 3 C-5.5600178 3.9790049 -8.15553589 5.6822885 -11 8 C-11.48038431 2.59567654 -11.48038431 2.59567654 -9.4375 0.0625 C-5.87779149 -1.48916781 -3.75256541 -0.91859674 0 0 Z " fill="#731732" transform="translate(567,302)"/>
<path d="M0 0 C0.99 0.33 1.98 0.66 3 1 C1.989375 1.825 0.97875 2.65 -0.0625 3.5 C-2.68097263 5.74067656 -4.98676072 8.04150871 -7.2109375 10.671875 C-11.14347021 15.22186091 -15.31317334 19.49689617 -19.5625 23.75 C-20.29146484 24.49121094 -21.02042969 25.23242188 -21.77148438 25.99609375 C-25.62317297 29.85818295 -29.31840249 33.18956231 -34 36 C-34 32.44061146 -33.51228853 32.09417838 -31.1875 29.5625 C-30.54425781 28.85867188 -29.90101563 28.15484375 -29.23828125 27.4296875 C-28.49964844 26.62789063 -27.76101563 25.82609375 -27 25 C-26.18917969 24.07445312 -25.37835938 23.14890625 -24.54296875 22.1953125 C-17.22455779 13.89584478 -9.2381932 6.15879546 0 0 Z " fill="#731834" transform="translate(382,271)"/>
<path d="M0 0 C9.9 0 19.8 0 30 0 C30 0.33 30 0.66 30 1 C32.31 1.66 34.62 2.32 37 3 C36.67 3.66 36.34 4.32 36 5 C31.19451403 5.04936883 26.38917506 5.08570443 21.58349609 5.10986328 C19.94805328 5.11993254 18.31262851 5.13358881 16.67724609 5.15087891 C14.3290563 5.17508705 11.98110412 5.18647357 9.6328125 5.1953125 C8.53273361 5.21079636 8.53273361 5.21079636 7.41043091 5.22659302 C5.60537303 5.22699368 3.8009217 5.12212755 2 5 C1.34 4.34 0.68 3.68 0 3 C0 2.01 0 1.02 0 0 Z " fill="#7D213C" transform="translate(497,560)"/>
<path d="M0 0 C0.66 0.33 1.32 0.66 2 1 C-2.02582697 8.61046742 -7.43781955 13.00648649 -14.26953125 17.93359375 C-17.04194169 19.71443992 -17.04194169 19.71443992 -18 22 C-20.32156597 22.40729228 -22.6568787 22.74438677 -25 23 C-25 23.66 -25 24.32 -25 25 C-26.64453125 26.54296875 -26.64453125 26.54296875 -28.8125 28.1875 C-29.87404297 29.01314453 -29.87404297 29.01314453 -30.95703125 29.85546875 C-31.63121094 30.23316406 -32.30539062 30.61085938 -33 31 C-33.99 30.67 -34.98 30.34 -36 30 C-25.69148653 21.50270198 -25.69148653 21.50270198 -20.625 17.625 C-16.70506504 14.5998328 -12.90650893 11.44506612 -9.125 8.25 C-8.56506348 7.77771973 -8.00512695 7.30543945 -7.42822266 6.81884766 C-4.85524876 4.63342161 -2.33073488 2.4448268 0 0 Z " fill="#711B36" transform="translate(785,697)"/>
<path d="M0 0 C-0.66 1.65 -1.32 3.3 -2 5 C-7.80577607 5.55863137 -13.53846874 6.07095727 -19.375 5.9375 C-24.17546076 5.89126763 -28.13083304 6.3800553 -31.875 9.625 C-32.431875 10.305625 -32.431875 10.305625 -33 11 C-33.66 10.67 -34.32 10.34 -35 10 C-33.71142987 8.68445979 -32.41904109 7.37265903 -31.125 6.0625 C-30.04605469 4.96615234 -30.04605469 4.96615234 -28.9453125 3.84765625 C-26.20347365 1.24345991 -24.53494418 0.86388525 -20.859375 0.68359375 C-20.03566406 0.64169922 -19.21195313 0.59980469 -18.36328125 0.55664062 C-17.50089844 0.51732422 -16.63851562 0.47800781 -15.75 0.4375 C-14.47962891 0.37272461 -14.47962891 0.37272461 -13.18359375 0.30664062 C-8.78459969 0.09113781 -4.40571253 -0.05039214 0 0 Z " fill="#68102A" transform="translate(649,511)"/>
<path d="M0 0 C-0.33 0.99 -0.66 1.98 -1 3 C-2.84765625 3.73046875 -2.84765625 3.73046875 -5.0625 4.1875 C-5.79597656 4.34605469 -6.52945313 4.50460937 -7.28515625 4.66796875 C-8.13400391 4.83232422 -8.13400391 4.83232422 -9 5 C-9 4.34 -9 3.68 -9 3 C-10.66686292 3.60362499 -12.33347848 4.20793309 -14 4.8125 C-15.0003125 5.1734375 -16.000625 5.534375 -17.03125 5.90625 C-19.54201367 6.83126819 -22.01870236 7.81257408 -24.5 8.8125 C-28 10 -28 10 -31 9 C-30.67 7.68 -30.34 6.36 -30 5 C-25.94167606 3.96205291 -21.87781907 2.94767019 -17.8125 1.9375 C-16.08676758 1.49567383 -16.08676758 1.49567383 -14.32617188 1.04492188 C-12.65844727 0.6340332 -12.65844727 0.6340332 -10.95703125 0.21484375 C-9.93585205 -0.04176025 -8.91467285 -0.29836426 -7.86254883 -0.56274414 C-4.9063306 -1.01430805 -2.86665687 -0.77595451 0 0 Z " fill="#781D39" transform="translate(625,787)"/>
<path d="M0 0 C0.66 0.66 1.32 1.32 2 2 C1.67 2.66 1.34 3.32 1 4 C-7.72362371 6.26606864 -19.6243129 8.95222985 -28 5 C-28 4.67 -28 4.34 -28 4 C-24.64793462 3.32246925 -21.29306425 2.6599648 -17.9375 2 C-16.99455078 1.80921875 -16.05160156 1.6184375 -15.08007812 1.421875 C-9.98191748 0.42711195 -5.19631519 -0.44165229 0 0 Z " fill="#731631" transform="translate(367,178)"/>
<path d="M0 0 C0.495 0.99 0.495 0.99 1 2 C-0.34747314 2.029729 -0.34747314 2.029729 -1.72216797 2.06005859 C-5.05090078 2.13809261 -8.37917256 2.22478114 -11.70751953 2.31738281 C-13.1488374 2.35569674 -14.59025168 2.39054543 -16.03173828 2.421875 C-18.10223886 2.46747446 -20.17207433 2.52547444 -22.2421875 2.5859375 C-23.4885498 2.6173584 -24.73491211 2.6487793 -26.01904297 2.68115234 C-29.11541776 2.69682309 -29.11541776 2.69682309 -31 5 C-34.2578125 5.1953125 -34.2578125 5.1953125 -38.125 5.125 C-40.04699219 5.09792969 -40.04699219 5.09792969 -42.0078125 5.0703125 C-43.48894531 5.03550781 -43.48894531 5.03550781 -45 5 C-45 4.34 -45 3.68 -45 3 C-30.17180256 -0.92305066 -15.21372314 -0.30075791 0 0 Z " fill="#7A2941" transform="translate(472,246)"/>
<path d="M0 0 C-0.97293525 2.65345977 -1.62368156 3.7897044 -4.125 5.1875 C-7 6 -7 6 -10.9375 6.3125 C-14.75593849 6.70358774 -16.4849935 8.04291043 -19.28125 10.72265625 C-22.67925225 13.24798974 -26.93937158 14.01293025 -31 15 C-29.85806652 11.57419957 -29.4992546 11.42672646 -26.46484375 9.84375 C-25.73716797 9.46089844 -25.00949219 9.07804687 -24.25976562 8.68359375 C-23.49341797 8.29300781 -22.72707031 7.90242188 -21.9375 7.5 C-20.82858398 6.91412109 -20.82858398 6.91412109 -19.69726562 6.31640625 C-6.39019254 -0.59908055 -6.39019254 -0.59908055 0 0 Z " fill="#701D35" transform="translate(422,252)"/>
<path d="M0 0 C0.33 0.66 0.66 1.32 1 2 C-1.92677893 10.2638464 -6.93996625 17.87847101 -12 25 C-12.33 25 -12.66 25 -13 25 C-12.59952156 18.76397865 -10.47290665 14.84855017 -7.0625 9.6875 C-6.60681641 8.97271484 -6.15113281 8.25792969 -5.68164062 7.52148438 C-3.91537664 4.77769802 -2.31411446 2.31411446 0 0 Z " fill="#6D152F" transform="translate(344,310)"/>
<path d="M0 0 C0 0.99 0 1.98 0 3 C-0.62648438 3.27714844 -1.25296875 3.55429688 -1.8984375 3.83984375 C-2.71570313 4.20207031 -3.53296875 4.56429687 -4.375 4.9375 C-5.18710937 5.29714844 -5.99921875 5.65679687 -6.8359375 6.02734375 C-8.23683785 6.6569903 -9.62625284 7.31312642 -11 8 C-13.3329866 8.04022391 -15.66706666 8.04320247 -18 8 C-18 7.01 -18 6.02 -18 5 C-15.94175571 4.15621025 -13.87820214 3.32536378 -11.8125 2.5 C-10.66394531 2.0359375 -9.51539063 1.571875 -8.33203125 1.09375 C-5.28009923 0.09194348 -3.16884928 -0.23870804 0 0 Z " fill="#731C37" transform="translate(308,192)"/>
<path d="M0 0 C-2.51555404 3.77333106 -5.50695287 4.9363356 -9.5 6.75 C-10.18964844 7.07871094 -10.87929688 7.40742187 -11.58984375 7.74609375 C-13.36335296 8.56543426 -15.1798391 9.29030424 -17 10 C-17.66 9.67 -18.32 9.34 -19 9 C-18.85546875 7.171875 -18.85546875 7.171875 -18 5 C-15.48828125 3.515625 -15.48828125 3.515625 -12.3125 2.25 C-11.27738281 1.82203125 -10.24226562 1.3940625 -9.17578125 0.953125 C-5.93734659 -0.01880373 -3.35915717 -0.18130384 0 0 Z " fill="#741C37" transform="translate(687,765)"/>
<path d="M0 0 C0.9075 0.804375 1.815 1.60875 2.75 2.4375 C11.25362652 9.68958471 19.99867929 15.97965201 30 21 C29.67 21.66 29.34 22.32 29 23 C27.35 22.67 25.7 22.34 24 22 C24 21.01 24 20.02 24 19 C23.071875 18.71125 22.14375 18.4225 21.1875 18.125 C18 17 18 17 15 15 C13.34450469 14.61500109 11.6777567 14.27206865 10 14 C10 13.34 10 12.68 10 12 C9.34 12 8.68 12 8 12 C7 10.33333333 6 8.66666667 5 7 C4.113125 6.113125 3.22625 5.22625 2.3125 4.3125 C1.549375 3.549375 0.78625 2.78625 0 2 C0 1.34 0 0.68 0 0 Z " fill="#711632" transform="translate(704,314)"/>
<path d="M0 0 C2.0625 0.4375 2.0625 0.4375 4 1 C0.68546394 3.1781237 -2.02961964 4.57076969 -6 5 C-6.66 4.67 -7.32 4.34 -8 4 C-10.10374996 3.84558791 -12.21195119 3.75007361 -14.3203125 3.68359375 C-15.57714844 3.64169922 -16.83398438 3.59980469 -18.12890625 3.55664062 C-19.44761719 3.51732422 -20.76632812 3.47800781 -22.125 3.4375 C-23.46485751 3.39430488 -24.80470156 3.35069027 -26.14453125 3.30664062 C-29.42957815 3.20029019 -32.71470281 3.09826192 -36 3 C-36 2.67 -36 2.34 -36 2 C-11.99929685 0.85304215 -11.99929685 0.85304215 -2.9140625 1.0625 C-0.99011795 1.21800235 -0.99011795 1.21800235 0 0 Z " fill="#650D25" transform="translate(540,559)"/>
<path d="M0 0 C2.48763013 1.46427244 3.95968271 2.86015504 6 5 C6 6.32 6 7.64 6 9 C4.68 8.34 3.36 7.68 2 7 C2 6.34 2 5.68 2 5 C0.2857711 3.76603959 0.2857711 3.76603959 -2 3 C-5.5600178 3.9790049 -8.15553589 5.6822885 -11 8 C-11.48038431 2.59567654 -11.48038431 2.59567654 -9.4375 0.0625 C-5.84892096 -1.5017524 -3.74834189 -1.03402535 0 0 Z " fill="#6C122D" transform="translate(567,302)"/>
<path d="M0 0 C-2.37628649 5.03213609 -5.15532587 6.62170542 -10 9 C-10.66 9 -11.32 9 -12 9 C-12.66 9.66 -13.32 10.32 -14 11 C-15.32 11 -16.64 11 -18 11 C-18 10.34 -18 9.68 -18 9 C-15.59616102 7.16977081 -13.20182057 5.47716954 -10.6875 3.8125 C-9.99720703 3.33619141 -9.30691406 2.85988281 -8.59570312 2.36914062 C-7.92861328 1.92376953 -7.26152344 1.47839844 -6.57421875 1.01953125 C-5.96151123 0.60807861 -5.34880371 0.19662598 -4.7175293 -0.22729492 C-3 -1 -3 -1 0 0 Z " fill="#701430" transform="translate(250,221)"/>
<path d="M0 0 C1.32 0.66 2.64 1.32 4 2 C3.13375 2.99 2.2675 3.98 1.375 5 C-1.49311175 8.31456311 -4.03575091 11.78112704 -6.5078125 15.3984375 C-8.27031963 17.29013363 -9.48013226 17.6214791 -12 18 C-6 9 -6 9 0 0 Z " fill="#731D39" transform="translate(837,637)"/>
<path d="M0 0 C-2.37409996 2.62400522 -4.81364829 4.44568209 -8 6 C-10.3125 5.6875 -10.3125 5.6875 -12 5 C-11.67 4.34 -11.34 3.68 -11 3 C-17.6 3 -24.2 3 -31 3 C-31 2.67 -31 2.34 -31 2 C-29.85402344 1.93941406 -28.70804688 1.87882812 -27.52734375 1.81640625 C-25.99738703 1.73193011 -24.46743959 1.64728573 -22.9375 1.5625 C-21.80924805 1.50352539 -21.80924805 1.50352539 -20.65820312 1.44335938 C-13.72038041 1.05291914 -6.96258438 -0.14209356 0 0 Z " fill="#6E142F" transform="translate(791,341)"/>
<path d="M0 0 C0 3.44013793 -0.31060514 3.74217079 -2.625 6.0625 C-5.53559688 8.85639842 -8.13444497 9.82352673 -12 11 C-14.33531458 12.99935694 -14.33531458 12.99935694 -16 15 C-16.66 14.67 -17.32 14.34 -18 14 C-17.9296875 12.2578125 -17.9296875 12.2578125 -17 10 C-14.71515368 8.45144686 -12.55318181 7.14967428 -10.125 5.875 C-8.85639101 5.18559431 -7.58814899 4.49551281 -6.3203125 3.8046875 C-5.22460938 3.20914063 -4.12890625 2.61359375 -3 2 C-2.01 1.34 -1.02 0.68 0 0 Z " fill="#732139" transform="translate(597,535)"/>
<path d="M0 0 C4.10108886 1.62156024 6.83148167 4.5767703 9.859375 7.6640625 C10.40861633 8.21613373 10.95785767 8.76820496 11.52374268 9.33700562 C13.27059293 11.09501815 15.01034601 12.8598689 16.75 14.625 C17.93573591 15.8207708 19.1219288 17.01608865 20.30859375 18.2109375 C23.21105085 21.13540253 26.1071641 24.06601874 29 27 C28.34 27.66 27.68 28.32 27 29 C26.55914063 28.48695313 26.11828125 27.97390625 25.6640625 27.4453125 C19.39588547 20.31255933 12.70849825 13.64488942 5.94580078 6.98291016 C5.17864746 6.22413574 4.41149414 5.46536133 3.62109375 4.68359375 C2.9242749 3.99837646 2.22745605 3.31315918 1.50952148 2.60717773 C0 1 0 1 0 0 Z " fill="#782039" transform="translate(589,285)"/>
<path d="M0 0 C4.31353877 1.47233334 7.51239715 3.68051361 11.125 6.4375 C12.15882813 7.21996094 13.19265625 8.00242187 14.2578125 8.80859375 C16.32652463 10.46179533 18.19982008 12.06946223 20 14 C19.67 14.66 19.34 15.32 19 16 C16.625 15.25 16.625 15.25 14 14 C13.33333333 12.66666667 12.66666667 11.33333333 12 10 C8.20733432 7.08001547 8.20733432 7.08001547 3.75 5.5625 C3.1725 5.376875 2.595 5.19125 2 5 C0.75 2.4375 0.75 2.4375 0 0 Z " fill="#761A37" transform="translate(287,715)"/>
<path d="M0 0 C8.26747851 -0.23658921 15.92046224 0.18655665 24 2 C24 2.33 24 2.66 24 3 C13.62642369 5.66514806 13.62642369 5.66514806 8 3 C8 2.34 8 1.68 8 1 C5.36 1 2.72 1 0 1 C0 0.67 0 0.34 0 0 Z " fill="#6D0F28" transform="translate(411,178)"/>
<path d="M0 0 C1 3 1 3 0.0625 5.6875 C-2.69321555 10.11334619 -6.20957151 13.45266312 -10 17 C-10.66 16.01 -11.32 15.02 -12 14 C-11.55269531 13.57589844 -11.10539063 13.15179687 -10.64453125 12.71484375 C-6.55048098 8.74300394 -3.186099 4.73087427 0 0 Z " fill="#751F3B" transform="translate(824,655)"/>
<path d="M0 0 C0.33 0 0.66 0 1 0 C1.26997516 3.02266309 1.23775704 4.60739255 -0.35546875 7.23828125 C-0.96003906 7.92277344 -1.56460938 8.60726563 -2.1875 9.3125 C-2.77917969 10.00988281 -3.37085938 10.70726562 -3.98046875 11.42578125 C-6.48649153 13.37921874 -7.89881022 13.3160107 -11 13 C-10.62488281 12.56429688 -10.24976563 12.12859375 -9.86328125 11.6796875 C-9.35152344 11.08414062 -8.83976563 10.48859375 -8.3125 9.875 C-7.76851562 9.24207031 -7.22453125 8.60914063 -6.6640625 7.95703125 C-5.14955629 6.17588663 -3.66581794 4.37365561 -2.1875 2.5625 C-1.465625 1.716875 -0.74375 0.87125 0 0 Z " fill="#6F1430" transform="translate(678,489)"/>
<path d="M0 0 C0 1.32 0 2.64 0 4 C-4.22949995 6.41685712 -7.12335991 7.34833144 -12 7 C-12 6.01 -12 5.02 -12 4 C-8.36043372 1.57362248 -4.44144233 0 0 0 Z " fill="#731C37" transform="translate(801,337)"/>
<path d="M0 0 C1.4540625 1.2375 1.4540625 1.2375 2.9375 2.5 C3.89076172 3.30824219 3.89076172 3.30824219 4.86328125 4.1328125 C6.36927304 5.44883458 7.84341506 6.80174719 9.29296875 8.1796875 C10.06253906 8.90414063 10.83210937 9.62859375 11.625 10.375 C12.33914063 11.06335938 13.05328125 11.75171875 13.7890625 12.4609375 C16.46847071 14.32610858 17.79865271 14.46621562 21 14 C21.99 13.34 22.98 12.68 24 12 C23.3125 13.9375 23.3125 13.9375 22 16 C19.75 17 19.75 17 17 17 C12.43865315 14.31909698 8.80452423 11.11451647 5.125 7.375 C4.62742187 6.88515625 4.12984375 6.3953125 3.6171875 5.890625 C0 2.25356284 0 2.25356284 0 0 Z " fill="#71132E" transform="translate(619,315)"/>
<path d="M0 0 C0.66 0.66 1.32 1.32 2 2 C1.67 2.66 1.34 3.32 1 4 C-1.50390625 4.4140625 -1.50390625 4.4140625 -4.5625 4.625 C-5.57441406 4.69976562 -6.58632813 4.77453125 -7.62890625 4.8515625 C-8.41136719 4.90054688 -9.19382812 4.94953125 -10 5 C-9.67 4.01 -9.34 3.02 -9 2 C-10.32 1.67 -11.64 1.34 -13 1 C-8.60854301 0.14313034 -4.47525292 -0.25818767 0 0 Z " fill="#7C223C" transform="translate(367,178)"/>
<path d="M0 0 C5.10884605 1.43047689 9.01744261 3.71389694 13.375 6.625 C14.01566406 7.04523438 14.65632812 7.46546875 15.31640625 7.8984375 C16.88155698 8.92629768 18.44134314 9.96231886 20 11 C15.98367013 12.33877662 13.90367509 11.49049413 10 10 C9.33333333 8.66666667 8.66666667 7.33333333 8 6 C6.07116574 4.50087826 6.07116574 4.50087826 3.875 3.3125 C2.57085804 2.56296645 1.27521703 1.79775205 0 1 C0 0.67 0 0.34 0 0 Z " fill="#731732" transform="translate(632,247)"/>
<path d="M0 0 C4.38889325 0.66498383 7.9811485 2.18757677 12 4 C11.67 4.66 11.34 5.32 11 6 C10.34 5.67 9.68 5.34 9 5 C9 5.66 9 6.32 9 7 C2.25 5.25 2.25 5.25 0 3 C0 2.01 0 1.02 0 0 Z " fill="#751632" transform="translate(370,765)"/>
<path d="M0 0 C-4.24528302 4.73045822 -4.24528302 4.73045822 -7.625 5.9375 C-10 6 -10 6 -13 4 C-13 3.34 -13 2.68 -13 2 C-8.46298506 0.54815522 -4.81938524 -0.23509196 0 0 Z " fill="#6E1632" transform="translate(425,467)"/>
<path d="M0 0 C-0.66 1.32 -1.32 2.64 -2 4 C-6.62 4 -11.24 4 -16 4 C-16 3.34 -16 2.68 -16 2 C-10.61972975 0.80911014 -5.54708616 -0.2919519 0 0 Z " fill="#772139" transform="translate(443,247)"/>
<path d="M0 0 C3.76119476 0.62393651 6.18960042 2.34773715 9.25 4.5625 C10.14203125 5.20316406 11.0340625 5.84382813 11.953125 6.50390625 C12.96632813 7.24447266 12.96632813 7.24447266 14 8 C13.34 8.66 12.68 9.32 12 10 C9.875 9.625 9.875 9.625 8 9 C8 8.34 8 7.68 8 7 C7.38125 6.9175 6.7625 6.835 6.125 6.75 C4 6 4 6 2.75 3.9375 C2.37875 2.9784375 2.37875 2.9784375 2 2 C1.34 2 0.68 2 0 2 C0 1.34 0 0.68 0 0 Z " fill="#721631" transform="translate(583,353)"/>
<path d="M0 0 C1.01299606 2.65602626 1.07672553 3.78395707 0.109375 6.5078125 C-0.33921875 7.37148438 -0.7878125 8.23515625 -1.25 9.125 C-1.68828125 9.99382812 -2.1265625 10.86265625 -2.578125 11.7578125 C-4 14 -4 14 -7 16 C-7.99 15.67 -8.98 15.34 -10 15 C-9.52949219 14.41992188 -9.05898438 13.83984375 -8.57421875 13.2421875 C-5.17861407 8.98186362 -2.18021001 5.00165825 0 0 Z " fill="#721F38" transform="translate(841,299)"/>
<path d="M0 0 C0.66 0.66 1.32 1.32 2 2 C0.01219635 4.98170547 -1.56237816 6.81831749 -5 8 C-5.99 7.67 -6.98 7.34 -8 7 C-7.67 6.34 -7.34 5.68 -7 5 C-7.66 4.67 -8.32 4.34 -9 4 C-6.03 2.68 -3.06 1.36 0 0 Z " fill="#7A233C" transform="translate(662,504)"/>
<path d="M0 0 C0 3 0 3 -1.125 4.5625 C-5.1523686 7.65014926 -10.08191865 8.29741695 -15 9 C-11.91730861 6.55586611 -8.71528889 4.66890476 -5.25 2.8125 C-4.26515625 2.28269531 -3.2803125 1.75289062 -2.265625 1.20703125 C-1.51796875 0.80871094 -0.7703125 0.41039062 0 0 Z " fill="#712239" transform="translate(719,746)"/>
<path d="M0 0 C1.703125 1.96875 1.703125 1.96875 3.25 4.5 C3.77078125 5.3353125 4.2915625 6.170625 4.828125 7.03125 C5.21484375 7.6809375 5.6015625 8.330625 6 9 C2.67240077 7.44805246 0.51419515 5.69378051 -2 3 C-3.65 4.32 -5.3 5.64 -7 7 C-7.66 6.67 -8.32 6.34 -9 6 C-4.5 0 -4.5 0 0 0 Z " fill="#7D233D" transform="translate(393,487)"/>
<path d="M0 0 C4.15151338 1.44202476 7.29978445 3.5010438 10.8125 6.125 C11.78832031 6.84945313 12.76414062 7.57390625 13.76953125 8.3203125 C14.50558594 8.87460937 15.24164062 9.42890625 16 10 C15.01 10.33 14.02 10.66 13 11 C12.34 10.34 11.68 9.68 11 9 C10.01 9.495 10.01 9.495 9 10 C8 9 7 8 6 7 C5.13375 6.154375 4.2675 5.30875 3.375 4.4375 C1 2 1 2 0 0 Z " fill="#791B37" transform="translate(548,327)"/>
<path d="M0 0 C6.12352638 4.51567309 12.0805035 9.22073438 18 14 C17.01 14.33 16.02 14.66 15 15 C12.65970155 13.34539409 10.57950638 11.69529769 8.4375 9.8125 C7.84775391 9.31685547 7.25800781 8.82121094 6.65039062 8.31054688 C3.73029389 5.79574229 1.35692932 3.71603519 0 0 Z " fill="#721834" transform="translate(529,310)"/>
<path d="M0 0 C0.99 0 1.98 0 3 0 C2.53199289 4.05606165 2.12046792 7.46588679 0 11 C-0.66 11 -1.32 11 -2 11 C-2.33 11.99 -2.66 12.98 -3 14 C-2.40380045 9.13103697 -1.43023178 4.67209049 0 0 Z " fill="#79273F" transform="translate(315,367)"/>
<path d="M0 0 C-1.29299694 2.88437779 -2.65941363 4.87219421 -5 7 C-5.99 6.67 -6.98 6.34 -8 6 C-8 5.34 -8 4.68 -8 4 C-8.99 3.67 -9.98 3.34 -11 3 C-8.69027779 1.8451389 -6.52482667 1.50496533 -4 1 C-2 0 -2 0 0 0 Z " fill="#6D122C" transform="translate(386,494)"/>
<path d="M0 0 C4.56454251 0.54339792 7.9728176 1.79463821 12 4 C11.67 4.66 11.34 5.32 11 6 C9.68 5.34 8.36 4.68 7 4 C6.67 4.99 6.34 5.98 6 7 C5.01 6.34 4.02 5.68 3 5 C3 4.01 3 3.02 3 2 C2.01 1.67 1.02 1.34 0 1 C0 0.67 0 0.34 0 0 Z " fill="#71162F" transform="translate(608,236)"/>
<path d="M0 0 C1.98 0 3.96 0 6 0 C5.34 1.65 4.68 3.3 4 5 C1.36 5.33 -1.28 5.66 -4 6 C-3.34 5.195625 -2.68 4.39125 -2 3.5625 C0.10254514 1.41038085 0.10254514 1.41038085 0 0 Z " fill="#711631" transform="translate(643,511)"/>
<path d="M0 0 C1.125 1.75 1.125 1.75 2 4 C1.125 6.25 1.125 6.25 0 8 C-0.66 8 -1.32 8 -2 8 C-2.33 9.32 -2.66 10.64 -3 12 C-3.66 12 -4.32 12 -5 12 C-3.68938409 7.76570244 -2.05643741 3.92592596 0 0 Z " fill="#76273F" transform="translate(330,331)"/>
<path d="M0 0 C0 1.32 0 2.64 0 4 C-2.64 4 -5.28 4 -8 4 C-8.33 3.34 -8.66 2.68 -9 2 C-5.62902617 0.50178941 -3.79557881 0 0 0 Z " fill="#6E1631" transform="translate(636,783)"/>
<path d="M0 0 C0.99 0.33 1.98 0.66 3 1 C2.50628906 1.40992188 2.01257813 1.81984375 1.50390625 2.2421875 C0.86324219 2.78101563 0.22257812 3.31984375 -0.4375 3.875 C-1.07558594 4.40867187 -1.71367187 4.94234375 -2.37109375 5.4921875 C-4.10805004 6.9222757 -4.10805004 6.9222757 -5 9 C-6.32 8.34 -7.64 7.68 -9 7 C-7.57277341 5.8001722 -6.13284224 4.6154424 -4.6875 3.4375 C-3.88699219 2.77621094 -3.08648437 2.11492187 -2.26171875 1.43359375 C-1.51535156 0.96050781 -0.76898438 0.48742187 0 0 Z " fill="#6F1D36" transform="translate(382,271)"/>
<path d="M0 0 C0.33 0.66 0.66 1.32 1 2 C-0.65 3.98 -2.3 5.96 -4 8 C-5.65 7.67 -7.3 7.34 -9 7 C-6.03716687 4.61327331 -3.05729491 2.2646629 0 0 Z " fill="#702039" transform="translate(820,325)"/>
<path d="M0 0 C0.66 0.33 1.32 0.66 2 1 C-1.56430755 4.14985318 -4.40693504 6.5140084 -9 8 C-7.83917375 4.51752126 -7.09067524 4.11180756 -4.0625 2.25 C-3.35222656 1.80140625 -2.64195312 1.3528125 -1.91015625 0.890625 C-1.27980469 0.59671875 -0.64945313 0.3028125 0 0 Z " fill="#6D1832" transform="translate(743,731)"/>
<path d="M0 0 C0.66 0.99 1.32 1.98 2 3 C1.5390625 5.04296875 1.5390625 5.04296875 0.625 7.1875 C0.32851563 7.90292969 0.03203125 8.61835938 -0.2734375 9.35546875 C-0.51320313 9.89816406 -0.75296875 10.44085938 -1 11 C-2.1875 9.4375 -2.1875 9.4375 -3 7 C-1.625 3.25 -1.625 3.25 0 0 Z " fill="#7A2942" transform="translate(688,470)"/>
<path d="M0 0 C-0.33 1.65 -0.66 3.3 -1 5 C-2.65 5 -4.3 5 -6 5 C-6 4.01 -6 3.02 -6 2 C-3 0 -3 0 0 0 Z " fill="#7C253F" transform="translate(795,339)"/>
<path d="M0 0 C1.98 0 3.96 0 6 0 C6 0.99 6 1.98 6 3 C2.01803543 4.05404945 -0.98195309 3.84098656 -5 3 C-5 2.67 -5 2.34 -5 2 C-3.35 1.67 -1.7 1.34 0 1 C0 0.67 0 0.34 0 0 Z " fill="#7C1C38" transform="translate(555,797)"/>
<path d="M0 0 C-1.15173355 2.46800047 -2.04783565 4.04783565 -4 6 C-5.32 6 -6.64 6 -8 6 C-8 5.34 -8 4.68 -8 4 C-2.58823529 0 -2.58823529 0 0 0 Z " fill="#6A1D35" transform="translate(240,226)"/>
<path d="M0 0 C0.33 0.66 0.66 1.32 1 2 C0.01 3.485 0.01 3.485 -1 5 C-1.66 4.67 -2.32 4.34 -3 4 C-2.01 2.68 -1.02 1.36 0 0 Z M-5 3 C-4.34 3.99 -3.68 4.98 -3 6 C-4.32 6.99 -5.64 7.98 -7 9 C-7 6 -7 6 -5 3 Z " fill="#77223C" transform="translate(355,298)"/>
<path d="M0 0 C3.7952131 1.49097658 5.61042731 3.75700849 8 7 C5 7 5 7 2.3125 4.625 C0 2 0 2 0 0 Z " fill="#832A45" transform="translate(673,277)"/>
<path d="M0 0 C-1.65 1.65 -3.3 3.3 -5 5 C-5.66 4.67 -6.32 4.34 -7 4 C-6.625 2.0625 -6.625 2.0625 -6 0 C-3.50907189 -1.24546405 -2.58919267 -0.7767578 0 0 Z " fill="#6D1730" transform="translate(586,545)"/>
<path d="M0 0 C2.56687367 3.8503105 1.83288724 5.58569763 1 10 C0.34 10 -0.32 10 -1 10 C-0.67 6.7 -0.34 3.4 0 0 Z " fill="#7A223D" transform="translate(311,383)"/>
<path d="M0 0 C0.66 0.33 1.32 0.66 2 1 C-0.64 3.97 -3.28 6.94 -6 10 C-6.33 9.01 -6.66 8.02 -7 7 C-4.69 4.69 -2.38 2.38 0 0 Z " fill="#63152D" transform="translate(358,293)"/>
<path d="M0 0 C1.32 0.33 2.64 0.66 4 1 C2.35 2.98 0.7 4.96 -1 7 C-1.99 6.67 -2.98 6.34 -4 6 C-3.525625 5.38125 -3.05125 4.7625 -2.5625 4.125 C-0.97582559 2.09294454 -0.97582559 2.09294454 0 0 Z " fill="#7B1F3B" transform="translate(745,729)"/>
<path d="M0 0 C0.94875 0.04125 1.8975 0.0825 2.875 0.125 C1.39 2.105 1.39 2.105 -0.125 4.125 C-2.6 3.135 -2.6 3.135 -5.125 2.125 C-3.125 0.125 -3.125 0.125 0 0 Z " fill="#772741" transform="translate(422.125,466.875)"/>
<path d="M0 0 C0.66 0 1.32 0 2 0 C2.125 6.75 2.125 6.75 1 9 C0.34 9 -0.32 9 -1 9 C-0.67 6.03 -0.34 3.06 0 0 Z " fill="#7B223C" transform="translate(848,277)"/>
<path d="M0 0 C-0.33 1.32 -0.66 2.64 -1 4 C-2.65 3.67 -4.3 3.34 -6 3 C-6 2.34 -6 1.68 -6 1 C-4 0 -4 0 0 0 Z " fill="#6E1531" transform="translate(643,781)"/>
<path d="M0 0 C0.33 0.99 0.66 1.98 1 3 C-1.78823655 4.0326802 -2.8677274 4.04509293 -5.75 3.0625 C-6.4925 2.711875 -7.235 2.36125 -8 2 C-8 1.67 -8 1.34 -8 1 C-5.23735711 0.40267181 -2.83967231 0 0 0 Z " fill="#79243E" transform="translate(347,181)"/>
<path d="M0 0 C-1.39332574 3.36720387 -2.9789286 4.9859524 -6 7 C-5.37162381 3.35541809 -4.14650034 0 0 0 Z " fill="#7A2A43" transform="translate(811,673)"/>
<path d="M0 0 C1.65 0 3.3 0 5 0 C3.6875 2 3.6875 2 2 4 C1.01 4 0.02 4 -1 4 C-0.67 2.68 -0.34 1.36 0 0 Z " fill="#6A122D" transform="translate(802,336)"/>
<path d="M0 0 C-0.66 1.32 -1.32 2.64 -2 4 C-3.32 4 -4.64 4 -6 4 C-5.67 3.01 -5.34 2.02 -5 1 C-3 0 -3 0 0 0 Z " fill="#6E1530" transform="translate(278,204)"/>
</svg>
