<svg width="114" height="111" viewBox="0 0 114 111" fill="none" xmlns="http://www.w3.org/2000/svg">
<rect y="30.7817" width="90" height="85.052" rx="20" transform="rotate(-20 0 30.7817)" fill="#EB5757"/>
<g clip-path="url(#clip0_26_2501)">
<path d="M64.1682 74.5187C53.3559 78.454 41.4012 72.8795 37.4659 62.0672C33.5305 51.2548 39.105 39.3002 49.9174 35.3648C60.7297 31.4294 72.6844 37.004 76.6197 47.8163C80.5551 58.6287 74.9806 70.5833 64.1682 74.5187ZM62.7431 70.6033C66.8968 69.0915 70.2798 65.9915 72.1479 61.9854C74.016 57.9793 74.2162 53.3951 72.7043 49.2414C71.1925 45.0877 68.0926 41.7047 64.0864 39.8366C60.0803 37.9685 55.4962 37.7684 51.3425 39.2802C47.1888 40.792 43.8058 43.892 41.9377 47.8981C40.0696 51.9042 39.8694 56.4884 41.3813 60.6421C42.8931 64.7958 45.993 68.1788 49.9992 70.0469C54.0053 71.915 58.5894 72.1151 62.7431 70.6033ZM59.0005 54.2292L66.8313 51.379L68.2564 55.2944L56.5102 59.5697L51.5224 45.8658L55.4378 44.4407L59.0005 54.2292Z" fill="white"/>
</g>
<defs>
<clipPath id="clip0_26_2501">
<rect width="50" height="50" fill="white" transform="translate(25 39.9999) rotate(-20)"/>
</clipPath>
</defs>
</svg>
